<?xml version="1.0"?>
<svg xmlns="http://www.w3.org/2000/svg" height="512px" viewBox="0 -1 512.00001 512" width="512px" class=""><g><path d="m423.042969 96.097656v-76.476562c-.003907-10.835938-8.789063-19.621094-19.628907-19.621094h-383.785156c-10.839844 0-19.628906 8.789062-19.628906 19.628906v76.46875l211.824219 20.585938zm0 0" fill="#e01f26" data-original="#E01F26" class="" data-old_color="#e01f26" style="fill:#9777DB"/><path d="m19.628906 0c-10.839844 0-19.628906 8.789062-19.628906 19.628906v76.46875l211.4375 20.585938v-116.683594zm0 0" fill="#ff432e" data-original="#FF432E" class="" data-old_color="#ff432e" style="fill:#9777DB"/><path d="m407.601562 96.097656v359.128906c0 6.160157.675782 11.761719 1.714844 16.84375 5.164063 25.316407 12.03125 37.394532 58.113282 37.394532 24.453124 0 44.277343-19.023438 44.277343-54.238282l.292969-340.941406c.007812-10.042968-8.128906-18.1875-18.171875-18.1875zm0 0" fill="#ced2e1" data-original="#CED2E1" class="" data-old_color="#ced2e1" style="fill:#CED2E1"/><g fill="#195285"><path d="m423.140625 176.15625h42.980469c8.527344 0 15.441406-6.914062 15.441406-15.441406s-6.914062-15.441406-15.441406-15.441406h-42.980469c-8.527344 0-15.441406 6.914062-15.441406 15.441406s6.914062 15.441406 15.441406 15.441406zm0 0" data-original="#000000" class=""/><path d="m466.121094 209.871094h-42.980469c-8.527344 0-15.441406 6.914062-15.441406 15.441406s6.914062 15.4375 15.441406 15.4375h42.980469c8.527344 0 15.4375-6.910156 15.4375-15.4375s-6.910156-15.441406-15.4375-15.441406zm0 0" data-original="#000000" class=""/><path d="m466.121094 274.464844h-42.980469c-8.527344 0-15.441406 6.914062-15.441406 15.441406s6.914062 15.441406 15.441406 15.441406h42.980469c8.527344 0 15.4375-6.914062 15.4375-15.441406s-6.910156-15.441406-15.4375-15.441406zm0 0" data-original="#000000" class=""/><path d="m466.121094 339.0625h-42.980469c-8.527344 0-15.441406 6.910156-15.441406 15.4375s6.914062 15.441406 15.441406 15.441406h42.980469c8.527344 0 15.4375-6.914062 15.4375-15.441406s-6.910156-15.4375-15.4375-15.4375zm0 0" data-original="#000000" class=""/><path d="m466.121094 403.65625h-42.980469c-8.527344 0-15.441406 6.914062-15.441406 15.441406 0 8.523438 6.914062 15.4375 15.441406 15.4375h42.980469c8.527344 0 15.4375-6.914062 15.4375-15.4375 0-8.527344-6.910156-15.441406-15.4375-15.441406zm0 0" data-original="#000000" class=""/></g><path d="m424.757812 472.070312c-1.039062-5.082031-1.714843-10.683593-1.714843-16.84375v-359.128906h-423.042969v340.660156c0 40.15625 32.550781 72.707032 72.703125 72.707032h394.726563c-20.363282 0-37.507813-12.078125-42.671876-37.394532zm0 0" fill="#dce1ea" data-original="#DCE1EA" class="" data-old_color="#dce1ea" style="fill:#DCE1EA"/><path d="m0 96.097656v340.660156c0 40.15625 32.550781 72.707032 72.703125 72.707032h138.730469v-413.367188zm0 0" fill="#f3f5fb" data-original="#F3F5FB" class="" data-old_color="#f3f5fb" style="fill:#DCE1EA"/><path d="m367.757812 406.449219h-313.777343c-8.527344 0-15.441407 6.910156-15.441407 15.4375 0 8.527343 6.914063 15.441406 15.441407 15.441406h313.777343c8.523438 0 15.4375-6.914063 15.4375-15.441406 0-8.527344-6.914062-15.4375-15.4375-15.4375zm0 0" fill="#195285" data-original="#195285" class="" data-old_color="#195285" style="fill:#195285"/><path d="m56.1875 370.667969h311.570312c8.523438 0 15.4375-6.914063 15.4375-15.441407 0-8.527343-6.914062-15.4375-15.4375-15.4375h-311.570312c-8.527344 0-15.4375 6.910157-15.4375 15.4375 0 8.527344 6.910156 15.441407 15.4375 15.441407zm0 0" fill="#195285" data-original="#195285" class="" data-old_color="#195285" style="fill:#195285"/><path d="m53.980469 406.449219c-8.527344 0-15.441407 6.910156-15.441407 15.4375 0 8.527343 6.914063 15.441406 15.441407 15.441406h157.453125v-30.878906zm0 0" fill="#2570b7" data-original="#2570B7" class="active-path" data-old_color="#2570b7" style="fill:#195285"/><path d="m56.1875 339.789062c-8.527344 0-15.4375 6.914063-15.4375 15.441407 0 8.527343 6.910156 15.4375 15.4375 15.4375h155.246094v-30.878907zm0 0" fill="#2570b7" data-original="#2570B7" class="active-path" data-old_color="#2570b7" style="fill:#195285"/><path d="m155.367188 149.496094c-28.976563-2.65625-54.621094 18.683594-57.277344 47.660156-.933594 10.183594 1.097656 19.953125 5.378906 28.460938l65.023438 8.097656 28.261718-57.101563c-8.152344-14.820312-23.277344-25.457031-41.386718-27.117187zm0 0" fill="#ffc247" data-original="#FFC247" class=""/><path d="m279.574219 210.742188c-2.558594 0-10.402344.1875-13.742188 1-9.082031-22.078126-30.746093-38.359376-57.363281-38.359376-31.648438 0-54.617188 22.164063-60.167969 46.8125 0 0-7.054687-5.597656-16-5.597656-51.945312 0-53.273437 86.335938 6.164063 86.335938h133.53125c58.066406 0 57.234375-90.191406 7.578125-90.191406zm0 0" fill="#bde6fc" data-original="#BDE6FC" class="" data-old_color="#bde6fc" style="fill:#E1F1FA"/><path d="m208.46875 173.382812c-31.648438 0-54.617188 22.164063-60.167969 46.8125 0 0-7.054687-5.597656-16-5.597656-51.945312 0-53.273437 86.335938 6.164063 86.335938h72.972656v-127.476563c-.984375-.046875-1.96875-.074219-2.96875-.074219zm0 0" fill="#e1f1fa" data-original="#E1F1FA" class="" style="fill:#E1F1FA" data-old_color="#e1f1fa"/></g> </svg>
